<svg xmlns="http://www.w3.org/2000/svg" viewBox="0 0 289.21 338.21">
<defs>
    <style>.cls-1{fill:#fff;stroke:#fff;}.cls-1,.cls-3{stroke-linejoin:round;}.cls-1,.cls-3,.cls-4{stroke-width:2px;}.cls-2{fill:#f26161;}.cls-3{fill:none;}.cls-3,.cls-4{stroke:#000;}.cls-4{stroke-miterlimit:10;}</style>
    <pattern
        id="pattern"
        patternUnits="userSpaceOnUse"
        width="100%"
        height="100%"
    >
        <image
            x="0"
            y="0"
        />
    </pattern>
</defs>
<g id="Calque_2" data-name="Calque 2"><g id="Calque_1-2" data-name="Calque 1"><path class="cls-1" d="M287,3.38C255.3,1.1,100.84-1.62,4.15,6.16.21,111.74-.31,212.18,4.15,335c83.35,2.84,181.71,3.89,278.16-2.64C286.15,278.09,290.33,102.29,287,3.38ZM257.54,303H33.46V34.07H257.54Z"/><path class="cls-2" d="M167.92,34.12a22.41,22.41,0,1,0-44.82,0Z"/><path class="cls-2" d="M212.73,34.12a22.41,22.41,0,1,0-44.81,0Z"/><path class="cls-2" d="M257.55,34.12a22.41,22.41,0,0,0-44.82,0Z"/><path class="cls-2" d="M78.28,34.12a22.41,22.41,0,1,0-44.81,0Z"/><path class="cls-2" d="M123.1,34.12a22.41,22.41,0,0,0-44.82,0Z"/><path class="cls-2" d="M123.1,303a22.41,22.41,0,0,0,44.82,0Z"/><path class="cls-2" d="M78.28,303a22.41,22.41,0,0,0,44.82,0Z"/><path class="cls-2" d="M33.47,303a22.41,22.41,0,1,0,44.81,0Z"/><path class="cls-2" d="M212.73,303a22.41,22.41,0,0,0,44.82,0Z"/><path class="cls-2" d="M167.92,303a22.41,22.41,0,1,0,44.81,0Z"/><path class="cls-2" d="M257.55,168.52a22.41,22.41,0,1,0,0-44.81Z"/><path class="cls-2" d="M257.55,213.34a22.41,22.41,0,0,0,0-44.82Z"/><path class="cls-2" d="M257.55,258.15a22.41,22.41,0,1,0,0-44.81Z"/><path class="cls-2" d="M257.55,303a22.41,22.41,0,0,0,0-44.82Z"/><path class="cls-2" d="M257.55,78.89a22.41,22.41,0,0,0,0-44.82Z"/><path class="cls-2" d="M257.55,123.71a22.41,22.41,0,0,0,0-44.82Z"/><path class="cls-2" d="M33.47,168.52a22.41,22.41,0,1,0,0,44.82Z"/><path class="cls-2" d="M33.47,123.71a22.41,22.41,0,1,0,0,44.81Z"/><path class="cls-2" d="M33.47,78.89a22.41,22.41,0,0,0,0,44.82Z"/><path class="cls-2" d="M33.47,34.07a22.41,22.41,0,0,0,0,44.82Z"/><path class="cls-2" d="M33.47,258.15a22.41,22.41,0,1,0,0,44.82Z"/><path class="cls-2" d="M33.47,213.34a22.41,22.41,0,1,0,0,44.81Z"/><path class="cls-2" d="M257.55,34.07c0-16.38,14.67-30.69,29.45-30.69C287,18.73,272.27,34.07,257.55,34.07Z"/><path class="cls-2" d="M33.47,34.07c0-16.38-14.53-27.91-29.32-27.91C4.15,21.51,18.74,34.07,33.47,34.07Z"/><path class="cls-2" d="M33.47,303c-16.39,0-29.32,17.24-29.32,32C19.5,335,33.47,317.7,33.47,303Z"/><path class="cls-2" d="M282.31,332.35c0-16.38-10-29.38-24.76-29.38C257.55,318.32,267.59,332.35,282.31,332.35Z"/><path class="cls-3" d="M282.31,332.35c-96.45,6.53-194.8,5.48-278.16,2.64C-.3,212.18.21,111.74,4.15,6.16,100.84-1.62,255.3,1.1,287,3.38,290.33,102.3,286.15,278.09,282.31,332.35Z"/>
<rect class="cls-4 placeholder" x="33.47" y="34.07" width="224.08" height="268.9" fill="url(#pattern)"/>
</g></g></svg>