<svg xmlns="http://www.w3.org/2000/svg" viewBox="0 0 283.74 376.21">
<defs>
    <style>.cls-1{fill:#fff;}.cls-1,.cls-4,.cls-5{stroke:#000;}.cls-1,.cls-2,.cls-5{stroke-miterlimit:10;}.cls-1,.cls-2,.cls-4,.cls-5{stroke-width:2px;}.cls-2,.cls-4{fill:none;}.cls-2{stroke:#f26161;}.cls-3{fill:#f26161;}.cls-4{stroke-linejoin:round;}</style>
    <pattern
        id="pattern"
        patternUnits="userSpaceOnUse"
        width="100%"
        height="100%"
    >
        <image
            x="0"
            y="0"
        />
    </pattern>
</defs>
<g id="Calque_2" data-name="Calque 2"><g id="Calque_1-2" data-name="Calque 1"><path class="cls-1" d="M176.43,46.29c17-12.32-3.75-36.45-19.84-19.75,12.09-33.34-43.27-34.77-30.84,0C113,8.37,86,32.17,108.05,46.07,46.59,64,1,129.8,1,208.21c0,92.23,63.07,167,140.87,167s140.87-74.77,140.87-167C282.74,130.12,237.52,64.55,176.43,46.29ZM141.87,342.08c-62.37,0-112.93-59.93-112.93-133.87S79.5,74.34,141.87,74.34,254.8,134.28,254.8,208.21,204.24,342.08,141.87,342.08Z"/><ellipse class="cls-2" cx="141.87" cy="208.22" rx="128.83" ry="152.73"/><path class="cls-3" d="M122.54,56.84c-7.55-30.28,41.85-33.86,36.92,0C153.77,54.92,128,54.43,122.54,56.84Z"/><path class="cls-4" d="M176.43,46.29c17-12.31-3.75-36.45-19.84-19.75,12.09-33.34-43.27-34.76-30.84,0C113,8.37,86,32.17,108.05,46.08,46.59,64,1,129.81,1,208.22c0,92.22,63.07,167,140.87,167s140.87-74.77,140.87-167C282.74,130.12,237.52,64.56,176.43,46.29Z"/>
<ellipse class="cls-5 placeholder" cx="141.87" cy="208.22" rx="112.93" ry="133.87" fill="url(#pattern)"/>
</g></g></svg>