<svg xmlns="http://www.w3.org/2000/svg" viewBox="0 0 280.43 385.27">
<defs>
    <style>.cls-1{fill:#fff;}.cls-2{fill:#f26161;}.cls-3,.cls-4{fill:none;}.cls-3{stroke:#f26161;}.cls-3,.cls-4,.cls-5{stroke-miterlimit:10;stroke-width:2px;}.cls-4,.cls-5{stroke:#000;}</style>
    <pattern
        id="pattern"
        patternUnits="userSpaceOnUse"
        width="100%"
        height="100%"
    >
        <image
            x="0"
            y="0"
        />
    </pattern>
</defs>
<g id="Calque_2" data-name="Calque 2"><g id="Calque_1-2" data-name="Calque 1"><path class="cls-1" d="M279.15,104.49H210.83a70.44,70.44,0,0,0-140.88,0H1.63C-.18,191.81,2,284.84,7.09,382c98.31,2.63,189.83,3.37,266.55,0C276.85,270.4,280.49,152.9,279.15,104.49ZM249.76,352.62H31V133.88H249.76Z"/><path class="cls-2" d="M173.86,104.49a33.47,33.47,0,0,0-66.94,0Z"/><path class="cls-3" d="M191.62,104.49a51.23,51.23,0,0,0-102.46,0"/><line class="cls-4" x1="209.47" y1="90.75" x2="242.87" y2="84.1"/><line class="cls-4" x1="205.46" y1="77.53" x2="236.92" y2="64.5"/><line class="cls-4" x1="198.96" y1="65.36" x2="227.27" y2="46.44"/><line class="cls-4" x1="190.2" y1="54.68" x2="214.27" y2="30.6"/><line class="cls-4" x1="179.52" y1="45.92" x2="198.44" y2="17.61"/><line class="cls-4" x1="167.34" y1="39.41" x2="180.37" y2="7.95"/><line class="cls-4" x1="154.13" y1="35.4" x2="160.77" y2="2.01"/><line class="cls-4" x1="140.39" y1="34.05" x2="140.39"/><line class="cls-4" x1="126.65" y1="35.4" x2="120" y2="2.01"/><line class="cls-4" x1="113.43" y1="39.41" x2="100.4" y2="7.95"/><line class="cls-4" x1="101.25" y1="45.92" x2="82.34" y2="17.61"/><line class="cls-4" x1="90.58" y1="54.68" x2="66.5" y2="30.6"/><line class="cls-4" x1="81.82" y1="65.36" x2="53.51" y2="46.44"/><line class="cls-4" x1="75.31" y1="77.53" x2="43.85" y2="64.5"/><line class="cls-4" x1="71.3" y1="90.75" x2="37.91" y2="84.1"/>
<rect class="cls-5 placeholder" x="31.02" y="133.88" width="218.74" height="218.74" fill="url(#pattern)"/>
<path class="cls-4" d="M279.15,104.49c1.34,48.41-2.3,165.91-5.51,277.52-76.72,3.37-168.24,2.63-266.55,0C2,284.84-.18,191.81,1.63,104.49Z"/><path class="cls-4" d="M210.83,104.49H70a70.44,70.44,0,0,1,140.88,0Z"/></g></g></svg>