<svg xmlns="http://www.w3.org/2000/svg" viewBox="0 0 409.49 287.94">
<defs>
    <style>.cls-1{fill:#fff;}.cls-2,.cls-5{fill:none;}.cls-2{stroke:#f26161;}.cls-2,.cls-4,.cls-5{stroke-miterlimit:10;stroke-width:2px;}.cls-3{fill:#f26161;}.cls-4,.cls-5{stroke:#000;}</style>
    <pattern
        id="pattern"
        patternUnits="userSpaceOnUse"
        width="100%"
        height="100%"
    >
        <image
            x="0"
            y="0"
        />
    </pattern>
</defs>
<g id="Calque_2" data-name="Calque 2"><g id="Calque_1-2" data-name="Calque 1"><path class="cls-1" d="M393.33,151.56c17.59-7.23,13.54-31.12,0-36.12,15.92-7.78,14.65-31.68,0-37.79,15-3.75,15.61-28.9,1.85-33.91,14.32-8.54,14.36-27.68,12.38-31.44S389.17,1,375.62,13.88c-6.67-13-23.55-15.83-30.63,0-8.34-15.6-35.84-18.57-45.29,0-7.78-13.66-31.95-17.46-44.46,0C246.63-2,220.51-3.62,211.9,14.41c-10.83-15.53-30-19.14-44.73-.57-9.45-16.71-36.12-15-43.91,2.64C106-6.48,87.7,3.71,81.14,18,72.42-3.7,51-3.7,39.92,18.29c-7.24-12-32.6-14.47-37.3-6.49S3.46,37.22,16.1,47.31C2.86,52-1.14,70.66,16.33,77.89c-15.72,5.9-12.4,28.19.72,34.58-18.56,7.06-14.27,31.8,1.62,38.14C1.24,158.2,7,182.73,20.6,187.45c-15.75,8.11-12.42,30.17,2.35,36-14.67,6.42-18.6,23.66-1.93,30-12.06,8.15-10.56,22.14-6.11,28s23.58,2.32,31.25-10.34c6.94,12.82,24.32,16.81,31.07.87,8.66,15.42,31.82,19.59,40.88.83,8.06,13.49,25,18.17,37.1.45,8.95,15.7,33.47,19.49,41.7,1.28,11.16,15.3,25.87,18,40.21-.84,9.79,16.51,36.75,16.84,44.17-.93,17.7,22.6,36.65,13.56,42.91-.89,8.49,19.15,26.39,20.95,37-1.27,10,15.61,26.12,12,30.84,10.42s6.26-21.15-2.08-28.76c14.17-3.71,15-20.14-.15-29.52,15.83-5.57,15.27-30.63,2.29-37.3C410.84,178.78,409.09,158.22,393.33,151.56ZM369,246.64H44.76V41.7H369Z"/><path class="cls-2" d="M119,41.69c-3.74-38.28-32.85-31.32-29.73,0Z"/><path class="cls-3" d="M109.75,41.69C107.9,23,96.21,23,97.83,41.69Z"/><path class="cls-2" d="M164.41,41.69c-5.55-43.88-36.24-31-31.95,0Z"/><path class="cls-3" d="M155.66,41.69c-.29-21.38-16.6-19.54-14.72,0Z"/><path class="cls-2" d="M208.18,41.69c-5.61-43.45-35.3-31.56-31.4,0Z"/><path class="cls-3" d="M185.67,41.69c-1.13-18.72,12.32-22.15,14.59,0Z"/><path class="cls-2" d="M250.61,41.69c-3.74-38.28-32.85-31.32-29.73,0Z"/><path class="cls-3" d="M229.45,41.69c-1.62-18.68,10.07-18.73,11.92,0Z"/><path class="cls-2" d="M296,41.69c-5.55-43.88-36.24-31-31.95,0Z"/><path class="cls-3" d="M272.56,41.69c-1.88-19.54,14.43-21.38,14.72,0Z"/><path class="cls-2" d="M339.79,41.69c-5.6-43.45-35.29-31.56-31.39,0Z"/><path class="cls-3" d="M331.88,41.69c-2.27-22.15-15.72-18.72-14.59,0Z"/><path class="cls-2" d="M83.68,246.64c-3.12,31.32,29.73,37.05,29.73,0Z"/><path class="cls-3" d="M92.25,246.64c-1.61,18.68,11.92,18.72,11.92,0Z"/><path class="cls-2" d="M121.7,246.64c-4.29,31,29.52,41.64,32,0Z"/><path class="cls-3" d="M130.18,246.64c-1.87,19.54,14.43,21.38,14.72,0Z"/><path class="cls-2" d="M163.14,246.64c-3.89,31.57,30.17,41.22,31.4,0Z"/><path class="cls-3" d="M172,246.64c-1.14,18.72,12.32,22.15,14.58,0Z"/><path class="cls-2" d="M202.69,246.64c.34,33.58,28.82,38,29.73,0Z"/><path class="cls-3" d="M211.26,246.64c1.36,19.41,11.92,18,11.92,0Z"/><path class="cls-2" d="M327.66,246.64c.34,33.58,28.82,38,29.73,0Z"/><path class="cls-3" d="M348.15,246.64c0,18-10.56,19.41-11.92,0Z"/><path class="cls-2" d="M245.89,246.64c-4.29,31,31.05,41.92,32,0Z"/><path class="cls-3" d="M254.37,246.64c-1.87,19.54,14.43,21.38,14.72,0Z"/><path class="cls-2" d="M289,246.64c-3.9,31.57,30.61,40.3,31.4,0Z"/><path class="cls-3" d="M297.87,246.64c-1.13,18.72,12.33,22.15,14.59,0Z"/><path class="cls-2" d="M369,217c26.43,3.66,35.48-25.12,0-27.19Z"/><path class="cls-3" d="M369,209.76c16.65,1.59,18.22-12.28,0-12.53Z"/><path class="cls-2" d="M369,180.35c29.73,3,38.83-23.44,0-24.4Z"/><path class="cls-3" d="M369,173.44c17.63.88,20.86-9.58,0-11.33Z"/><path class="cls-2" d="M369,146.57c30.18-.3,34.17-25.8,0-26.61Z"/><path class="cls-3" d="M369,138.9c19.41-1.22,18-10.67,0-10.67Z"/><path class="cls-2" d="M369,72.53c30.19-.28,34.18-23.48,0-24.21Z"/><path class="cls-3" d="M369,65.55c19.42-1.11,18-9.71,0-9.71Z"/><path class="cls-2" d="M368.76,41.7c5-33.73-23.75-36.65-18.61,0Z"/><path class="cls-3" d="M363.39,41.69c1.84-20.8-11.59-20.64-7.46,0Z"/><path class="cls-2" d="M369,244.61c31.88,9.7,33.55-17.39,0-18.61Z"/><path class="cls-3" d="M369,239.24c19.17,5.49,23.14-7.85,0-7.46Z"/><path class="cls-2" d="M369,111.66c27.25,4.29,36.83-31,0-32Z"/><path class="cls-3" d="M369,88.46c21.39.29,19.55,16.59,0,14.72Z"/><path class="cls-2" d="M44.76,189.78c-35.48,2.07-26.43,30.85,0,27.19Z"/><path class="cls-3" d="M44.76,197.23c-18.22.25-16.65,14.12,0,12.53Z"/><path class="cls-2" d="M44.76,180.35c-29.73,3-38.83-23.44,0-24.4Z"/><path class="cls-3" d="M44.76,162.11c-20.87,1.75-17.63,12.21,0,11.33Z"/><path class="cls-2" d="M44.76,146.57c-30.18-.3-34.17-25.8,0-26.61Z"/><path class="cls-3" d="M44.76,128.23c-18,0-19.41,9.45,0,10.67Z"/><path class="cls-2" d="M44.76,72.53c-30.18-.28-34.17-23.48,0-24.21Z"/><path class="cls-3" d="M44.76,55.84c-18,0-19.41,8.6,0,9.71Z"/><path class="cls-2" d="M50.88,246.64c.74,34.17,23.94,30.18,24.22,0Z"/><path class="cls-3" d="M58.41,246.64c0,18,8.6,19.41,9.71,0Z"/><path class="cls-2" d="M44.77,246.64c-32,5.24-34.54-21.57,0-19.35Z"/><path class="cls-3" d="M44.77,241.06c-21.14,3.49-18.26-10.11,0-7.76Z"/><path class="cls-2" d="M72.73,41.69C72,7.52,48.8,11.51,48.51,41.69Z"/><path class="cls-3" d="M65.21,41.69c0-18-8.61-19.41-9.71,0Z"/><path class="cls-2" d="M44.76,111.66c-27.24,4.29-36.82-31,0-32Z"/><path class="cls-3" d="M44.76,88.46c-21.38.29-19.54,16.59,0,14.72Z"/><path class="cls-2" d="M375.13,41c-3.7-2.6,10.07-36.39,23.34-25.35S378.83,43.57,375.13,41Z"/><path class="cls-3" d="M383,32.66c-2.62-1.66,5.63-12.48,8.71-9.5S385.58,34.32,383,32.66Z"/><path class="cls-2" d="M38.46,40.6c-2.6,3.7-36.39-10.07-25.35-23.35S41.06,36.9,38.46,40.6Z"/><path class="cls-3" d="M30.15,32.77c-1.66,2.63-12.48-5.63-9.51-8.7S31.81,30.15,30.15,32.77Z"/><path class="cls-2" d="M41.54,253.65c3.7,2.6-9.73,31.89-20.74,21.48S37.84,251.05,41.54,253.65Z"/><path class="cls-3" d="M34.79,260.13c2.62,1.66-5.63,12.49-8.71,9.51S32.16,258.48,34.79,260.13Z"/><path class="cls-2" d="M366.7,252.78c2.87-3.7,33.39,6.35,21.2,19.62S363.83,256.48,366.7,252.78Z"/><path class="cls-3" d="M373.44,258.6c1.55-2.69,12.71,5.1,9.87,8.3S371.9,261.29,373.44,258.6Z"/>
<rect class="cls-4 placeholder" x="44.76" y="41.69" width="324.22" height="204.94" fill="url(#pattern)"/>
<path class="cls-5" d="M393.34,151.55c17.58-7.22,13.53-31.11,0-36.12,15.92-7.77,14.64-31.67,0-37.78,15-3.75,15.6-28.9,1.84-33.91,14.32-8.55,14.37-27.69,12.39-31.44S389.17,1,375.63,13.88c-6.67-13-23.55-15.83-30.64,0-8.33-15.6-35.84-18.57-45.29,0-7.77-13.66-31.95-17.46-44.45,0-8.61-15.88-34.73-17.46-43.34.57-10.84-15.53-30-19.14-44.74-.57-9.44-16.71-36.12-15-43.9,2.64C106-6.48,87.71,3.71,81.14,18,72.43-3.7,51-3.7,39.92,18.29,32.68,6.26,7.33,3.82,2.63,11.8S3.47,37.22,16.1,47.31C2.87,52-1.14,70.66,16.33,77.89c-15.71,5.9-12.39,28.19.72,34.58-18.55,7.06-14.27,31.8,1.63,38.14C1.25,158.2,7,182.73,20.6,187.45c-15.75,8.11-12.41,30.17,2.36,36-14.68,6.42-18.6,23.66-1.93,30-12.06,8.16-10.56,22.15-6.12,28s23.58,2.32,31.26-10.34c6.94,12.82,24.31,16.8,31.07.87,8.66,15.42,31.81,19.59,40.87.83,8.06,13.49,25,18.17,37.11.45,8.94,15.7,33.46,19.48,41.69,1.28,11.17,15.3,25.88,18,40.21-.84,9.8,16.51,36.75,16.84,44.17-.93,17.71,22.6,36.65,13.56,42.92-.9,8.49,19.16,26.39,21,37-1.26,10,15.61,26.11,12,30.84,10.42s6.25-21.15-2.09-28.76c14.17-3.71,15-20.14-.15-29.52,15.84-5.57,15.28-30.63,2.3-37.3C410.84,178.78,409.1,158.22,393.34,151.55Z"/></g></g></svg>