<svg xmlns="http://www.w3.org/2000/svg" viewBox="0 0 302.86 424.75">
<defs>
    <pattern
        id="pattern"
        patternUnits="userSpaceOnUse"
        width="100%"
        height="100%"
    >
        <image
            x="0"
            y="0"
        />
    </pattern>
</defs>
<g id="Calque_2" data-name="Calque 2"><g id="Calque_1-2" data-name="Calque 1"><path d="M277.16,35.74c52.09-8.33,7.4-59.18-4.17-5.41,0,0,2.08-24.35-8.75-22.51-10.64,1.81,0,22.09,0,22.09l.15.16c-63.11-3.15-149.43-6-225.95-5l.17-.18s10.64-20.28,0-22.09c-10.44-1.77-8.88,20.77-8.76,22.41h0c-11.51-53.14-55.43-3.68-5.44,5.29v.13c-4.89-.29-22-.71-20.8,7.74C4.78,46.65,18,42.82,24.33,39q-1.39,177,7.33,347.77c-5.34-4-20.93-9.38-22.21-.4C8,396.21,31.54,394,31.54,394c-51.89,8.3-7.77,58.75,4,6h.1c-.24,3.8-1,23.54,8.8,21.88s1.33-19.45.13-21.82c64.47.27,155.09-2.18,212.93-7.38-.94,1.84-10,20.22.08,21.93,10.83,1.84,8.75-22.5,8.75-22.5,11.57,53.75,56.25,2.93,4.19-5.42.13,0,2.33.21,5.3.21,6.83,0,17.74-1.05,16.77-7.85-1.25-8.72-16-3.93-21.75.06,5.08-121.51,6.55-235.58,5.84-336.44,5,4.07,21.23,9.83,22.54.67C300.65,33.54,277.16,35.74,277.16,35.74ZM248.53,364.89H55.84V57.36H248.53Z" style="fill:#fff"/><path d="M80.36,43.32c0,2-2.49,2.62-4.11,2.57a4.71,4.71,0,0,1-4.6-3.77c-.36-2.4,1.49-4.3,3.65-5,2.81-.87,6-.27,8.69.75C89.39,40,93.11,44.81,98.43,47a6.85,6.85,0,0,0,7.12-.66A7.87,7.87,0,0,0,108.48,40c-.25-4.95-6.36-6.67-10.16-4.46a1.13,1.13,0,0,0,1.14,2,5,5,0,0,1,5.87.55c1.92,1.92.55,5.33-1.38,6.71-2.62,1.86-5.89-.27-8.11-1.79-2.37-1.62-4.55-3.5-7-5.08-4.37-2.89-11.44-5-16.26-2a6.47,6.47,0,0,0-.54,10.81c3.24,2.34,10.61,1.77,10.52-3.42a1.13,1.13,0,0,0-2.25,0Z" style="fill:#f26161"/><path d="M262.24,89.22c-2,0-2.62-2.49-2.58-4.11a4.72,4.72,0,0,1,3.77-4.6c2.4-.36,4.3,1.49,5,3.65.87,2.81.27,6-.75,8.69-2,5.4-6.91,9.12-9.11,14.44a6.87,6.87,0,0,0,.66,7.12,7.87,7.87,0,0,0,6.34,2.93c4.95-.25,6.67-6.36,4.46-10.16a1.13,1.13,0,0,0-1.94,1.14,5,5,0,0,1-.56,5.87c-1.92,1.92-5.33.55-6.71-1.38-1.86-2.62.27-5.9,1.79-8.11,1.62-2.37,3.51-4.56,5.08-7,2.89-4.37,5-11.44,2-16.26A6.48,6.48,0,0,0,258.81,81c-2.34,3.24-1.76,10.61,3.43,10.52a1.13,1.13,0,0,0,0-2.25Z" style="fill:#f26161"/><path d="M258.54,330.38c-4.47-.08-5.62,5.8-4.22,9.1A6.48,6.48,0,0,0,265,341.61c4-4.14,2.4-11.09.1-15.64-1.29-2.55-3.23-4.71-4.89-7s-3.94-4.95-3.79-7.85,4.25-5.56,6.88-3.89c2,1.3,2.23,4.39,1.1,6.32a1.13,1.13,0,0,0,1.94,1.14c1.93-3.3,1-8.55-3-9.89a7.33,7.33,0,0,0-6.64,1.48,6.51,6.51,0,0,0-2.46,6.32c.46,2.75,2.27,5.13,3.86,7.33a62.88,62.88,0,0,1,4.8,6.78,16.7,16.7,0,0,1,2.14,9.14c-.19,2.23-1.25,4.7-3.57,5.39-2.68.8-5.1-1.37-5.46-4-.24-1.7.36-4.68,2.53-4.64a1.13,1.13,0,0,0,0-2.25Z" style="fill:#f26161"/><path d="M201.05,39.35c.08-4.47-5.8-5.62-9.1-4.22a6.47,6.47,0,0,0-2.13,10.63c4.14,4,11.09,2.41,15.64.1,2.54-1.28,4.71-3.22,7-4.88s5-3.94,7.86-3.79,5.56,4.25,3.89,6.87c-1.3,2-4.39,2.23-6.32,1.11a1.13,1.13,0,0,0-1.14,1.94c3.3,1.92,8.55,1,9.89-3a7.35,7.35,0,0,0-1.48-6.64,6.49,6.49,0,0,0-6.32-2.46c-2.75.46-5.14,2.27-7.33,3.86a64.93,64.93,0,0,1-6.78,4.8,16.72,16.72,0,0,1-9.14,2.14c-2.23-.19-4.7-1.25-5.4-3.58-.79-2.67,1.38-5.1,4-5.46,1.7-.23,4.68.37,4.64,2.54a1.13,1.13,0,0,0,2.25,0Z" style="fill:#f26161"/><path d="M250.54,43.33a4.7,4.7,0,0,0,.69-5.87,5.72,5.72,0,0,0-5.29-2.89,6.83,6.83,0,0,0-6.52,8.57c1.19,4.76,7.1,6.45,11.38,6.73a33.35,33.35,0,0,0,7.72-.66,27.27,27.27,0,0,0,7.15-2c2.94-1.38,6.05-4.9,3.81-8.23s-7.34-3-9.59,0a12.12,12.12,0,0,0-2,5.62,79.29,79.29,0,0,0-1,8.56c-.2,4.67.91,9.89,5.62,12a7.06,7.06,0,0,0,10.13-6.06c.23-4.7-5-7.18-9-5.63-1.34.52-.76,2.69.6,2.17,2.21-.85,5.68-.22,6.12,2.52a4.75,4.75,0,0,1-6,5.29c-3.61-.94-5-4.5-5.22-7.88a34.47,34.47,0,0,1,.33-5.92,60.4,60.4,0,0,1,.86-6c.58-2.66,2.17-5.43,5.31-4.61,2.53.66,3,3,1.21,4.78-2.42,2.41-6.52,2.79-9.71,3.34a20.86,20.86,0,0,1-11-.56c-1.81-.68-3.76-1.82-4.4-3.76a4.9,4.9,0,0,1,.85-4.53,4.66,4.66,0,0,1,5.17-1.2A2.88,2.88,0,0,1,249,41.74c-1,1,.57,2.63,1.59,1.59Z" style="fill:#f26161"/><path d="M260.56,366.45a4.7,4.7,0,0,0,5.87.7,5.73,5.73,0,0,0,2.9-5.29,6.84,6.84,0,0,0-8.58-6.52c-4.75,1.19-6.44,7.1-6.72,11.38a32.81,32.81,0,0,0,.66,7.72,27.47,27.47,0,0,0,1.94,7.14c1.39,2.95,4.91,6.06,8.23,3.82s3-7.34,0-9.59a12.16,12.16,0,0,0-5.62-2,77.13,77.13,0,0,0-8.56-1c-4.67-.21-9.89.91-12,5.62a7.07,7.07,0,0,0,6.07,10.13c4.7.22,7.18-5,5.63-9-.52-1.34-2.7-.76-2.17.59.85,2.22.22,5.68-2.52,6.13a4.75,4.75,0,0,1-5.29-6c.94-3.61,4.5-5,7.88-5.22a34.29,34.29,0,0,1,5.91.32c2,.24,4,.44,6,.87,2.66.58,5.43,2.17,4.61,5.31-.66,2.53-3,3-4.78,1.2-2.41-2.41-2.79-6.51-3.34-9.7a20.9,20.9,0,0,1,.55-11c.69-1.8,1.83-3.75,3.76-4.39a4.89,4.89,0,0,1,4.53.85,4.66,4.66,0,0,1,1.21,5.17,2.88,2.88,0,0,1-4.61,1.24c-1-1-2.63.58-1.6,1.59Z" style="fill:#f26161"/><path d="M57,384a4.7,4.7,0,0,0-.69,5.87,5.73,5.73,0,0,0,5.29,2.89,6.84,6.84,0,0,0,6.52-8.57c-1.2-4.76-7.11-6.45-11.38-6.73a32.94,32.94,0,0,0-7.73.66,27.57,27.57,0,0,0-7.14,1.94c-2.94,1.39-6.06,4.91-3.82,8.24s7.34,3,9.6,0a12.28,12.28,0,0,0,2-5.62,79.29,79.29,0,0,0,1-8.56c.2-4.67-.91-9.89-5.62-12A7.06,7.06,0,0,0,35,368.25c-.23,4.7,5,7.18,9,5.63,1.34-.52.75-2.69-.6-2.17-2.21.85-5.68.22-6.13-2.52a4.76,4.76,0,0,1,6-5.29c3.61.94,5,4.5,5.21,7.88a33.49,33.49,0,0,1-.32,5.92c-.23,2-.44,4-.86,6-.59,2.66-2.18,5.43-5.31,4.61-2.53-.66-3-3-1.21-4.78,2.41-2.41,6.52-2.79,9.71-3.34a21,21,0,0,1,11,.55c1.81.69,3.76,1.83,4.4,3.77A5,5,0,0,1,65,389a4.66,4.66,0,0,1-5.17,1.2,2.88,2.88,0,0,1-1.25-4.61c1-1-.57-2.63-1.59-1.59Z" style="fill:#f26161"/><path d="M37.44,53.65a4.7,4.7,0,0,0-5.87-.7,5.75,5.75,0,0,0-2.89,5.3,6.83,6.83,0,0,0,8.57,6.51C42,63.57,43.7,57.66,44,53.39a32.89,32.89,0,0,0-.66-7.73,27.57,27.57,0,0,0-1.94-7.14c-1.39-3-4.91-6.06-8.24-3.82s-3,7.34,0,9.6a12.39,12.39,0,0,0,5.62,2,79.29,79.29,0,0,0,8.56,1c4.67.2,9.89-.92,12-5.62a7.06,7.06,0,0,0-6.06-10.13c-4.7-.23-7.18,5-5.63,9,.52,1.33,2.69.75,2.17-.6-.85-2.21-.22-5.68,2.52-6.13a4.75,4.75,0,0,1,5.29,6c-.94,3.6-4.5,5-7.88,5.21a33.49,33.49,0,0,1-5.92-.32c-2-.23-4-.44-6-.87-2.66-.58-5.43-2.17-4.61-5.31.66-2.52,3-3,4.78-1.2,2.41,2.41,2.79,6.52,3.34,9.71a21,21,0,0,1-.55,11c-.69,1.8-1.83,3.76-3.77,4.39a4.88,4.88,0,0,1-4.52-.85,4.66,4.66,0,0,1-1.21-5.17,2.88,2.88,0,0,1,4.61-1.24c1,1,2.63-.57,1.59-1.59Z" style="fill:#f26161"/><path d="M118.43,42.44l61,1.07a1.13,1.13,0,0,0,0-2.25l-61-1.07a1.13,1.13,0,0,0,0,2.25Z" style="fill:#f26161"/><path d="M261.93,128.7l-.42,64.23-.41,64-.24,36.23a1.13,1.13,0,0,0,2.25,0l.42-64.22.42-64,.23-36.24a1.13,1.13,0,0,0-2.25,0Z" style="fill:#f26161"/><path d="M42.28,91.47c4.46.08,5.61-5.8,4.21-9.1a6.47,6.47,0,0,0-10.63-2.13c-4,4.14-2.41,11.08-.1,15.64a55.25,55.25,0,0,0,4.88,7c1.59,2.21,4,5,3.8,7.86s-4.26,5.56-6.88,3.89c-2-1.3-2.23-4.39-1.1-6.32a1.13,1.13,0,0,0-2-1.14c-1.92,3.3-1,8.55,3,9.89a7.35,7.35,0,0,0,6.64-1.48,6.49,6.49,0,0,0,2.46-6.32c-.46-2.75-2.27-5.14-3.85-7.33a62.08,62.08,0,0,1-4.8-6.78A16.63,16.63,0,0,1,35.78,86c.18-2.23,1.24-4.7,3.57-5.4,2.67-.79,5.1,1.38,5.46,4,.24,1.7-.36,4.68-2.53,4.64a1.13,1.13,0,0,0,0,2.25Z" style="fill:#f26161"/><path d="M45,332.63c2,0,2.62,2.49,2.58,4.1a4.74,4.74,0,0,1-3.77,4.61c-2.4.36-4.3-1.5-5-3.66-.87-2.8-.27-6,.75-8.69,2-5.4,6.91-9.11,9.11-14.43a6.87,6.87,0,0,0-.66-7.12,7.87,7.87,0,0,0-6.34-2.93c-5,.25-6.67,6.36-4.46,10.16a1.13,1.13,0,0,0,1.94-1.14,5,5,0,0,1,.56-5.88c1.92-1.91,5.33-.54,6.71,1.39,1.86,2.62-.27,5.89-1.79,8.11-1.62,2.37-3.51,4.55-5.08,6.94-2.89,4.38-5,11.45-2,16.27a6.48,6.48,0,0,0,10.82.53c2.34-3.23,1.76-10.6-3.43-10.51a1.13,1.13,0,0,0,0,2.25Z" style="fill:#f26161"/><path d="M39.33,128.7l.42,64.23.41,64,.24,36.23a1.13,1.13,0,0,0,2.25,0l-.42-64.22-.41-64-.24-36.24a1.13,1.13,0,0,0-2.25,0Z" style="fill:#f26161"/><path d="M87.65,379.73c.08-4.47-5.8-5.61-9.1-4.21a6.47,6.47,0,0,0-2.13,10.63c4.14,4,11.08,2.4,15.64.1,2.54-1.29,4.71-3.23,7-4.89s5-3.94,7.86-3.79,5.56,4.25,3.89,6.88c-1.3,2-4.39,2.23-6.32,1.1a1.13,1.13,0,0,0-1.14,1.94c3.3,1.93,8.55,1,9.89-2.95a7.37,7.37,0,0,0-1.48-6.65,6.49,6.49,0,0,0-6.32-2.45c-2.75.45-5.14,2.26-7.33,3.85a63.47,63.47,0,0,1-6.78,4.8,16.72,16.72,0,0,1-9.14,2.14C80,386,77.5,385,76.8,382.66c-.79-2.68,1.38-5.1,4-5.46,1.7-.24,4.68.36,4.64,2.53a1.13,1.13,0,0,0,2.25,0Z" style="fill:#f26161"/><path d="M203.84,383.7c0,2-2.49,2.62-4.11,2.57a4.71,4.71,0,0,1-4.6-3.76c-.36-2.41,1.49-4.31,3.65-5,2.81-.87,6-.27,8.69.74,5.4,2.05,9.12,6.91,14.44,9.12a6.87,6.87,0,0,0,7.12-.67,7.9,7.9,0,0,0,2.93-6.34c-.25-4.94-6.36-6.67-10.16-4.45a1.13,1.13,0,0,0,1.14,1.94,5,5,0,0,1,5.87.56c1.92,1.91.55,5.33-1.38,6.7-2.62,1.87-5.9-.26-8.11-1.79-2.37-1.62-4.56-3.5-6.95-5.08-4.37-2.89-11.44-5-16.26-2a6.48,6.48,0,0,0-.54,10.82c3.24,2.34,10.61,1.76,10.52-3.43a1.13,1.13,0,0,0-2.25,0Z" style="fill:#f26161"/><path d="M123.47,382.86l61.05-1.07a1.13,1.13,0,0,0,0-2.25l-61.05,1.07a1.13,1.13,0,0,0,0,2.25Z" style="fill:#f26161"/><path d="M280.68,28.16c0-6.71,5.92-17,11.12-12.44S289.08,27.18,280.68,28.16Z" style="fill:#f26161"/><path d="M274,394.62c6.71,0,17,5.91,12.44,11.12S275,403,274,394.62Z" style="fill:#f26161"/><path d="M27.31,401.87c0,6.71-5.91,17-11.12,12.44S18.91,402.85,27.31,401.87Z" style="fill:#f26161"/><path d="M22.16,22.52c-6.71,0-17-5.92-12.43-11.12S21.19,14.11,22.16,22.52Z" style="fill:#f26161"/><path d="M277.15,35.74c52.1-8.34,7.41-59.18-4.17-5.42,0,0,2.09-24.34-8.75-22.5-10.63,1.8,0,22.09,0,22.09l.15.15c-63.1-3.15-149.42-6-225.94-5l.17-.17s10.64-20.29,0-22.09c-10.44-1.77-8.89,20.76-8.76,22.4h0C18.32-27.89-25.6,21.57,24.4,30.53v.14c-4.89-.29-22-.72-20.8,7.73C4.78,46.65,18,42.81,24.33,39q-1.39,177,7.33,347.77c-5.35-4-20.93-9.38-22.22-.41C8,396.21,31.53,394,31.53,394c-51.88,8.3-7.77,58.76,4,6.05h.11c-.24,3.8-1,23.54,8.79,21.87s1.34-19.44.14-21.82c64.46.27,155.09-2.18,212.92-7.37-.93,1.84-10,20.21.09,21.93,10.83,1.84,8.75-22.51,8.75-22.51,11.57,53.76,56.25,2.93,4.19-5.41h0c.43,0,23.46,2.11,22.06-7.65-1.24-8.72-16-3.92-21.74.07,5.08-121.52,6.55-235.58,5.84-336.44,5,4.06,21.23,9.82,22.54.66C300.65,33.53,277.15,35.74,277.15,35.74Z" style="fill:none;stroke:#000;stroke-miterlimit:10;stroke-width:2px"/>
<rect class="placeholder" fill="url(#pattern)" x="55.83" y="57.35" width="192.7" height="307.53" style="stroke:#000;stroke-miterlimit:10;stroke-width:2px"/></g></g></svg>