<svg xmlns="http://www.w3.org/2000/svg" xmlns:xlink="http://www.w3.org/1999/xlink" viewBox="0 0 121.47 245.26"><defs><style>.cls-1,.cls-3{fill:#fff;}.cls-1,.cls-2,.cls-6,.cls-8{stroke:#000;stroke-miterlimit:10;stroke-width:2px;}.cls-4{clip-path:url(#clip-path);}.cls-5{fill:#f26161;}.cls-6,.cls-8{fill:none;}.cls-7{clip-path:url(#clip-path-2);}.cls-8{stroke-linecap:round;}</style><clipPath id="clip-path" transform="translate(1.94 3.34)"><path class="cls-1" d="M54,110.49H65.54a53,53,0,0,1,53,53V205.4a0,0,0,0,1,0,0H1a0,0,0,0,1,0,0V163.48a53,53,0,0,1,53-53Z"/></clipPath><clipPath id="clip-path-2" transform="translate(1.94 3.34)"><rect class="cls-1" x="13.29" y="7.39" width="92.94" height="106.16" rx="44.94"/></clipPath></defs><g id="Calque_2" data-name="Calque 2"><g id="Calque_1-2" data-name="Calque 1"><path class="cls-2" d="M61.71,4.34h0a50.49,50.49,0,0,1,50.49,50.49v65.24A44.94,44.94,0,0,1,67.25,165H56.16a44.94,44.94,0,0,1-44.94-44.94V54.83A50.49,50.49,0,0,1,61.71,4.34Z"/><path class="cls-3" d="M55.93,113.83H67.48a53,53,0,0,1,53,53v41.92a0,0,0,0,1,0,0H2.94a0,0,0,0,1,0,0V166.82a53,53,0,0,1,53-53Z"/><g class="cls-4"><path class="cls-1" d="M59.76,119a33.57,33.57,0,0,0,5.9,10,10.6,10.6,0,0,0,10.6,3.33c8.82-2.24,18.5-6.86,20.58-11.49,0,0-1-7.8-8.39-9.47S61.36,117.19,59.76,119" transform="translate(1.94 3.34)"/><path class="cls-1" d="M59.76,119a33.35,33.35,0,0,1-5.89,10,10.6,10.6,0,0,1-10.6,3.33c-8.82-2.24-18.5-6.86-20.58-11.49,0,0,1.53-10.56,13.8-10.3S59.76,119,59.76,119Z" transform="translate(1.94 3.34)"/><path class="cls-5" d="M59.76,110.49H54a53.15,53.15,0,0,0-53,53v66.44H35.93v-95.6A23.9,23.9,0,0,1,59.76,110.49Z" transform="translate(1.94 3.34)"/><path class="cls-5" d="M65.54,110.49H59.76A23.9,23.9,0,0,1,83.6,134.32v95.6h34.93V163.48A53.15,53.15,0,0,0,65.54,110.49Z" transform="translate(1.94 3.34)"/><path d="M59.76,110.49A23.9,23.9,0,0,1,83.6,134.32v95.6H35.93v-95.6a23.9,23.9,0,0,1,23.83-23.83h0m0-12a35.87,35.87,0,0,0-35.83,35.83v107.6H95.6V134.32A35.87,35.87,0,0,0,59.76,98.49Z" transform="translate(1.94 3.34)"/><path class="cls-3" d="M59.76,110.49A23.9,23.9,0,0,1,83.6,134.32v95.6H35.93v-95.6a23.9,23.9,0,0,1,23.83-23.83h0m0-8a31.87,31.87,0,0,0-31.83,31.83v103.6H91.6V134.32a31.87,31.87,0,0,0-31.84-31.83Z" transform="translate(1.94 3.34)"/><path d="M59.76,110.49A23.9,23.9,0,0,1,83.6,134.32v95.6H35.93v-95.6a23.9,23.9,0,0,1,23.83-23.83h0m0-4a27.86,27.86,0,0,0-27.83,27.83v99.6H87.6v-99.6a27.87,27.87,0,0,0-27.84-27.83Z" transform="translate(1.94 3.34)"/><circle cx="61.7" cy="145.08" r="3.38"/><circle cx="61.7" cy="167.43" r="3.38"/><circle cx="61.7" cy="189.77" r="3.38"/><circle cx="61.7" cy="212.12" r="3.38"/></g><path class="cls-6" d="M55.93,113.83H67.48a53,53,0,0,1,53,53v41.92a0,0,0,0,1,0,0H2.94a0,0,0,0,1,0,0V166.82a53,53,0,0,1,53-53Z"/><rect class="cls-3" x="15.24" y="10.73" width="92.94" height="106.16" rx="44.94"/><g class="cls-7"><path d="M40.24,29.34c9.17-11.82,39.46-9.42,50.57,6.42S99,85.47,98.09,95.47c26.06-6.89,22.45-129.76-57.85-91.41s-21.84,97-18.8,96.13C19.41,78.8,18.71,32,40.24,29.34Z" transform="translate(1.94 3.34)"/></g><rect class="cls-6" x="15.24" y="10.73" width="92.94" height="106.16" rx="44.94"/><circle class="cls-6" cx="40.26" cy="75.04" r="16.88"/><circle class="cls-6" cx="83.15" cy="75.04" r="16.88"/><path class="cls-6" d="M64.34,72a21.18,21.18,0,0,0-9.15,0" transform="translate(1.94 3.34)"/><path class="cls-8" d="M52,96c2.19,4.53,13.65,4.63,15.32,0" transform="translate(1.94 3.34)"/></g></g></svg>