<svg xmlns="http://www.w3.org/2000/svg" viewBox="0 0 283.73 335.99">
<defs>
    <pattern
        id="pattern"
        patternUnits="userSpaceOnUse"
        width="100%"
        height="100%"
    >
        <image
            x="0"
            y="0"
        />
    </pattern>
</defs>
<g id="Calque_2" data-name="Calque 2"><g id="Calque_1-2" data-name="Calque 1"><path d="M141.87,1C64.07,1,1,75.76,1,168S64.07,335,141.87,335s140.87-74.77,140.87-167S219.67,1,141.87,1Zm0,310.35C75.08,311.35,20.94,247.17,20.94,168S75.08,24.63,141.87,24.63,262.8,88.81,262.8,168,208.66,311.35,141.87,311.35Z" style="fill:#fff"/><path d="M141.87,24.63C75.08,24.63,20.94,88.81,20.94,168S75.08,311.35,141.87,311.35,262.8,247.17,262.8,168,208.66,24.63,141.87,24.63Zm0,277.23C79.5,301.86,28.94,241.93,28.94,168S79.5,34.12,141.87,34.12,254.8,94.06,254.8,168,204.24,301.86,141.87,301.86Z" style="fill:#f26161"/>
<ellipse class="placeholder" fill="url(#pattern)" cx="141.87" cy="167.99" rx="112.93" ry="133.87"/><path d="M139.13,24.63c-1.95-6.8-3.6-23-3.6-23" style="fill:none;stroke:#000;stroke-miterlimit:10;stroke-width:2px"/><path d="M155.79,24.63c.28-4.58,0-23,0-23" style="fill:none;stroke:#000;stroke-miterlimit:10;stroke-width:2px"/><path d="M169.39,27.73c1.45-3.52,6.13-18.43,7.12-22.23" style="fill:none;stroke:#000;stroke-miterlimit:10;stroke-width:2px"/><path d="M183.27,34c2-3.47,9.12-18,9.59-20.86" style="fill:none;stroke:#000;stroke-miterlimit:10;stroke-width:2px"/><path d="M198.07,40.16c3.13-3.54,10.75-15.51,11.1-19.67" style="fill:none;stroke:#000;stroke-miterlimit:10;stroke-width:2px"/><path d="M207,48.19c3.69-2.14,13.8-11.91,15.41-16" style="fill:none;stroke:#000;stroke-miterlimit:10;stroke-width:2px"/><path d="M219.54,58.11c5-4.16,12-12.59,13.65-17.27" style="fill:none;stroke:#000;stroke-miterlimit:10;stroke-width:2px"/><path d="M229.74,69.51c4.51-3.33,12.94-11.64,15.26-15.27" style="fill:none;stroke:#000;stroke-miterlimit:10;stroke-width:2px"/><path d="M238.16,81.25c3.6-2.57,16.89-12.69,16.63-13.1" style="fill:none;stroke:#000;stroke-miterlimit:10;stroke-width:2px"/><path d="M244.17,93.32c3.34-1.78,16.24-7.41,18.4-9.46" style="fill:none;stroke:#000;stroke-miterlimit:10;stroke-width:2px"/><path d="M251.69,106.8c3.2-1.44,15.62-6.6,18.86-7.77" style="fill:none;stroke:#000;stroke-miterlimit:10;stroke-width:2px"/><path d="M262.8,166.52c3.68-.41,19.93,0,19.93,0" style="fill:none;stroke:#000;stroke-miterlimit:10;stroke-width:2px"/><path d="M262.8,150.81c5.07-.28,17-.55,19.93,0" style="fill:none;stroke:#000;stroke-miterlimit:10;stroke-width:2px"/><path d="M261.12,137.34c4-1.2,15.44-6.32,19.29-6.4" style="fill:none;stroke:#000;stroke-miterlimit:10;stroke-width:2px"/><path d="M256.52,119.9c5.24-.55,17.69-4.57,19.66-4.78" style="fill:none;stroke:#000;stroke-miterlimit:10;stroke-width:2px"/><path d="M224,272.57c2.89,2.2,12.62,13.16,15.05,15.6" style="fill:none;stroke:#000;stroke-miterlimit:10;stroke-width:2px"/><path d="M233.42,260.77c5.22,4.32,14.25,12.29,16,14.14" style="fill:none;stroke:#000;stroke-miterlimit:10;stroke-width:2px"/><path d="M241.41,249.19c2.21,1.33,14.66,11.31,16.56,13.2" style="fill:none;stroke:#000;stroke-miterlimit:10;stroke-width:2px"/><path d="M248.88,234c4,2.78,14.61,9.29,17.24,11.87" style="fill:none;stroke:#000;stroke-miterlimit:10;stroke-width:2px"/><path d="M253.25,223.93c3.93,1.73,14.85,8.4,17.52,9.65" style="fill:none;stroke:#000;stroke-miterlimit:10;stroke-width:2px"/><path d="M257.5,210.11c3.84,1.79,16,7.44,18.68,8.37" style="fill:none;stroke:#000;stroke-miterlimit:10;stroke-width:2px"/><path d="M260.72,196.75c3.09.86,15.39,4.61,19.66,6.7" style="fill:none;stroke:#000;stroke-miterlimit:10;stroke-width:2px"/><path d="M262,180.76c4.75-.5,16.56.77,19.82,2.43" style="fill:none;stroke:#000;stroke-miterlimit:10;stroke-width:2px"/><path d="M145.91,311.27a149,149,0,0,1,0,23.65" style="fill:none;stroke:#000;stroke-miterlimit:10;stroke-width:2px"/><path d="M161.33,309.5c1.24,4.93,3.47,19.4,3.81,23.21" style="fill:none;stroke:#000;stroke-miterlimit:10;stroke-width:2px"/><path d="M178.25,304.75c2.66,4.26,5.05,19.94,5.52,22.73" style="fill:none;stroke:#000;stroke-miterlimit:10;stroke-width:2px"/><path d="M190.61,299.23c2,3.11,7.56,18.62,8.31,21.49" style="fill:none;stroke:#000;stroke-miterlimit:10;stroke-width:2px"/><path d="M203.62,291.27c2.71,2.74,9.08,13.83,11.11,18.7" style="fill:none;stroke:#000;stroke-miterlimit:10;stroke-width:2px"/><path d="M213.41,283.58c3.2,3.94,11.24,13.41,13.71,17.36" style="fill:none;stroke:#000;stroke-miterlimit:10;stroke-width:2px"/><path d="M125,310c-2.19,5.71-6.3,18.09-6.47,22.74" style="fill:none;stroke:#000;stroke-miterlimit:10;stroke-width:2px"/><path d="M110.28,306.41c-3,4.82-8.14,17.56-9.18,21.47" style="fill:none;stroke:#000;stroke-miterlimit:10;stroke-width:2px"/><path d="M94.24,299.81c-3.63,5.59-10,19.56-10.85,20.91" style="fill:none;stroke:#000;stroke-miterlimit:10;stroke-width:2px"/><path d="M81.9,292c-3.93,5.9-9.83,16.85-11.19,19.71" style="fill:none;stroke:#000;stroke-miterlimit:10;stroke-width:2px"/><path d="M70.71,283.93c-5.52,6.36-11.93,14-13.17,17.94" style="fill:none;stroke:#000;stroke-miterlimit:10;stroke-width:2px"/><path d="M61,275.67c-4,2.68-12.92,13.15-14.17,15.6" style="fill:none;stroke:#000;stroke-miterlimit:10;stroke-width:2px"/><path d="M51.2,262.86c-3.38,2.81-14.26,11.93-16.32,13.76" style="fill:none;stroke:#000;stroke-miterlimit:10;stroke-width:2px"/><path d="M20.73,182.59c-9.51-.28-16.22,0-19.53,1.67" style="fill:none;stroke:#000;stroke-miterlimit:10;stroke-width:2px"/><path d="M25.27,210.31c-5,2-16,6.43-18.83,8" style="fill:none;stroke:#000;stroke-miterlimit:10;stroke-width:2px"/><path d="M29.91,222.27c-4,2.83-14.55,8.67-17.63,11.31" style="fill:none;stroke:#000;stroke-miterlimit:10;stroke-width:2px"/><path d="M43.54,251.84c-3.72,2.1-14.25,8.94-17.32,12" style="fill:none;stroke:#000;stroke-miterlimit:10;stroke-width:2px"/><path d="M36.54,237.32c-6.94,4.58-14.21,8.32-17.24,11.87" style="fill:none;stroke:#000;stroke-miterlimit:10;stroke-width:2px"/><path d="M23.56,197.84c-5.75,1.14-14.23,2-19.57,4.52" style="fill:none;stroke:#000;stroke-miterlimit:10;stroke-width:2px"/><path d="M29.07,68.15C34.14,70,44.7,76,48,78" style="fill:none;stroke:#000;stroke-miterlimit:10;stroke-width:2px"/><path d="M39.58,90.5c-7.19-4.28-12.36-8.11-17-9.25" style="fill:none;stroke:#000;stroke-miterlimit:10;stroke-width:2px"/><path d="M34.41,102.75C31,98,21.12,94.86,16.13,93.32" style="fill:none;stroke:#000;stroke-miterlimit:10;stroke-width:2px"/><path d="M29.07,113.18c-3.71-.94-12.47-5.15-19.55-5.33" style="fill:none;stroke:#000;stroke-miterlimit:10;stroke-width:2px"/><path d="M25.27,127.72c-4.4-1.25-14.69-4-19.34-3.64" style="fill:none;stroke:#000;stroke-miterlimit:10;stroke-width:2px"/><path d="M22.92,140.86c-5.8-1.47-14.65-4.51-19.6-3.2" style="fill:none;stroke:#000;stroke-miterlimit:10;stroke-width:2px"/><path d="M21.18,153.5C14.81,152.24,5.46,149.74.76,151" style="fill:none;stroke:#000;stroke-miterlimit:10;stroke-width:2px"/><path d="M1,168.78c4.87-2.35,15.41-1.82,19.93,0" style="fill:none;stroke:#000;stroke-miterlimit:10;stroke-width:2px"/><path d="M56.3,67.92c-4.23-7.61-8.94-13.33-15.19-15.74" style="fill:none;stroke:#000;stroke-miterlimit:10;stroke-width:2px"/><path d="M69.6,54.24c-2.17-6.12-11-14.36-15.34-16.24" style="fill:none;stroke:#000;stroke-miterlimit:10;stroke-width:2px"/><path d="M81.45,42.48c-2.08-2.82-10.06-13.94-13.78-16.72" style="fill:none;stroke:#000;stroke-miterlimit:10;stroke-width:2px"/><path d="M96.9,34.88c-3.1-5.94-8.84-16.71-12.59-19.47" style="fill:none;stroke:#000;stroke-miterlimit:10;stroke-width:2px"/><path d="M108,30.33c0-8.89-5-21.32-6.26-22.66" style="fill:none;stroke:#000;stroke-miterlimit:10;stroke-width:2px"/><path d="M121.79,26.61c-1.31-6.42-5.17-22-5.77-23.06" style="fill:none;stroke:#000;stroke-miterlimit:10;stroke-width:2px"/><ellipse cx="141.87" cy="167.99" rx="120.93" ry="143.36" style="fill:none;stroke:#000;stroke-miterlimit:10;stroke-width:2px"/><ellipse cx="141.87" cy="167.99" rx="140.87" ry="166.99" style="fill:none;stroke:#000;stroke-miterlimit:10;stroke-width:2px"/></g></g></svg>