<svg xmlns="http://www.w3.org/2000/svg" viewBox="0 0 424.75 302.86">
<defs>
    <pattern
        id="pattern"
        patternUnits="userSpaceOnUse"
        width="100%"
        height="100%"
    >
        <image
            x="0"
            y="0"
        />
    </pattern>
</defs>
<g id="Calque_2" data-name="Calque 2"><g id="Calque_1-2" data-name="Calque 1"><path d="M389,277.16c8.33,52.09,59.18,7.4,5.41-4.17,0,0,24.35,2.08,22.51-8.75-1.81-10.64-22.09,0-22.09,0l-.16.15c3.15-63.11,6-149.43,5-225.95l.18.17s20.28,10.64,22.09,0c1.77-10.44-20.77-8.88-22.41-8.76h0c53.14-11.51,3.68-55.43-5.29-5.44h-.13c.29-4.89.71-22-7.74-20.8-8.24,1.18-4.41,14.44-.59,20.73Q208.72,22.94,38,31.66c4-5.34,9.38-20.93.4-22.21C28.55,8,30.75,31.54,30.75,31.54c-8.3-51.89-58.75-7.77-6,4v.1c-3.8-.24-23.54-1-21.88,8.8s19.45,1.33,21.82.13c-.27,64.47,2.18,155.09,7.38,212.93-1.84-.94-20.22-10-21.93.08-1.84,10.83,22.5,8.75,22.5,8.75-53.75,11.57-2.93,56.25,5.42,4.19,0,.13-.21,2.33-.21,5.3,0,6.83,1,17.74,7.85,16.77,8.72-1.25,3.93-16-.06-21.75,121.51,5.08,235.58,6.55,336.44,5.84-4.07,5-9.83,21.23-.67,22.54C391.22,300.65,389,277.16,389,277.16ZM59.87,248.53V55.84H367.4V248.53Z" style="fill:#fff"/><path d="M381.44,80.36c-2,0-2.62-2.49-2.58-4.11a4.72,4.72,0,0,1,3.77-4.6c2.4-.36,4.3,1.49,5,3.65.87,2.81.27,6-.75,8.69-2.05,5.4-6.91,9.12-9.11,14.44a6.87,6.87,0,0,0,.66,7.12,7.88,7.88,0,0,0,6.34,2.93c4.95-.25,6.67-6.36,4.46-10.16a1.13,1.13,0,0,0-1.94,1.14,5,5,0,0,1-.56,5.87c-1.92,1.92-5.33.55-6.7-1.38-1.87-2.62.26-5.89,1.78-8.11,1.62-2.37,3.51-4.55,5.09-7,2.88-4.37,5-11.44,2-16.26A6.48,6.48,0,0,0,378,72.09c-2.34,3.24-1.76,10.61,3.43,10.52a1.13,1.13,0,0,0,0-2.25Z" style="fill:#f26161"/><path d="M335.53,262.24c0-2,2.49-2.62,4.11-2.58a4.72,4.72,0,0,1,4.6,3.77c.36,2.4-1.49,4.3-3.65,5-2.8.87-6,.27-8.69-.75-5.4-2-9.12-6.91-14.44-9.11a6.87,6.87,0,0,0-7.12.66,7.9,7.9,0,0,0-2.93,6.34c.25,4.95,6.37,6.67,10.16,4.46a1.12,1.12,0,0,0-1.13-1.94,5,5,0,0,1-5.88-.56c-1.91-1.92-.54-5.33,1.38-6.71,2.63-1.86,5.9.27,8.12,1.79s4.55,3.51,6.94,5.08c4.37,2.89,11.45,5,16.26,2a6.48,6.48,0,0,0,.54-10.82c-3.24-2.34-10.61-1.76-10.52,3.43a1.13,1.13,0,0,0,2.25,0Z" style="fill:#f26161"/><path d="M94.38,258.54c.07-4.47-5.8-5.62-9.11-4.22A6.48,6.48,0,0,0,83.14,265c4.15,4,11.09,2.4,15.64.1,2.55-1.29,4.71-3.23,7-4.89s5-3.94,7.85-3.79,5.57,4.25,3.89,6.88c-1.3,2-4.39,2.23-6.32,1.1a1.12,1.12,0,0,0-1.13,1.94c3.29,1.93,8.54,1,9.88-3a7.32,7.32,0,0,0-1.47-6.64,6.52,6.52,0,0,0-6.33-2.46c-2.74.46-5.13,2.27-7.33,3.86a62.88,62.88,0,0,1-6.78,4.8A16.7,16.7,0,0,1,88.92,265c-2.22-.19-4.7-1.25-5.39-3.57-.8-2.68,1.37-5.1,4-5.46,1.7-.24,4.68.36,4.65,2.53a1.13,1.13,0,0,0,2.25,0Z" style="fill:#f26161"/><path d="M385.41,201.05c4.46.08,5.61-5.8,4.21-9.1A6.47,6.47,0,0,0,379,189.82c-4,4.14-2.41,11.09-.1,15.64a55.25,55.25,0,0,0,4.88,7c1.59,2.21,4,5,3.8,7.86s-4.26,5.56-6.88,3.89c-2-1.3-2.23-4.39-1.11-6.32a1.13,1.13,0,0,0-1.94-1.14c-1.92,3.3-1,8.55,3,9.89a7.35,7.35,0,0,0,6.64-1.48,6.49,6.49,0,0,0,2.46-6.32c-.46-2.75-2.27-5.14-3.85-7.33a62.08,62.08,0,0,1-4.8-6.78,16.63,16.63,0,0,1-2.14-9.14c.18-2.23,1.24-4.7,3.57-5.4,2.67-.79,5.1,1.38,5.46,4,.24,1.7-.36,4.68-2.53,4.64a1.13,1.13,0,0,0,0,2.25Z" style="fill:#f26161"/><path d="M381.42,250.54a4.7,4.7,0,0,0,5.87.69,5.75,5.75,0,0,0,2.9-5.29,6.85,6.85,0,0,0-8.58-6.52c-4.76,1.19-6.45,7.1-6.72,11.38a32.8,32.8,0,0,0,.65,7.72,28.07,28.07,0,0,0,1.95,7.15c1.38,2.94,4.9,6.05,8.23,3.81s3-7.34,0-9.59a12.16,12.16,0,0,0-5.62-2,79.77,79.77,0,0,0-8.57-1c-4.67-.2-9.89.91-12,5.62a7.06,7.06,0,0,0,6.07,10.13c4.7.23,7.17-5,5.62-9-.51-1.34-2.69-.76-2.17.6.85,2.21.22,5.68-2.52,6.12a4.74,4.74,0,0,1-5.28-6c.93-3.61,4.49-5,7.88-5.22a34.41,34.41,0,0,1,5.91.33,60.4,60.4,0,0,1,6,.86c2.66.58,5.43,2.18,4.61,5.31-.66,2.53-3,3-4.77,1.21-2.41-2.42-2.79-6.52-3.35-9.71a20.86,20.86,0,0,1,.56-11c.68-1.81,1.82-3.76,3.76-4.4a4.9,4.9,0,0,1,4.53.85,4.66,4.66,0,0,1,1.2,5.17A2.88,2.88,0,0,1,383,249a1.12,1.12,0,0,0-1.59,1.59Z" style="fill:#f26161"/><path d="M58.3,260.56a4.7,4.7,0,0,0-.7,5.87,5.74,5.74,0,0,0,5.29,2.9,6.84,6.84,0,0,0,6.52-8.58C68.22,256,62.31,254.31,58,254a32.89,32.89,0,0,0-7.73.66,27.57,27.57,0,0,0-7.14,1.94c-3,1.39-6.06,4.91-3.82,8.23s7.34,3,9.6,0a12.39,12.39,0,0,0,2-5.62,77.11,77.11,0,0,0,1-8.56c.21-4.67-.91-9.89-5.61-12a7.07,7.07,0,0,0-10.13,6.07c-.23,4.7,5,7.18,9,5.63,1.33-.52.75-2.7-.6-2.17-2.21.85-5.68.22-6.13-2.52a4.75,4.75,0,0,1,6-5.29c3.6.94,5,4.5,5.21,7.88a33.32,33.32,0,0,1-.32,5.91c-.24,2-.44,4-.87,6-.58,2.66-2.17,5.43-5.31,4.61-2.52-.66-3-3-1.2-4.78,2.41-2.41,6.52-2.79,9.71-3.34a20.87,20.87,0,0,1,11,.55c1.8.69,3.75,1.83,4.39,3.76a4.89,4.89,0,0,1-.85,4.53,4.66,4.66,0,0,1-5.17,1.21,2.88,2.88,0,0,1-1.24-4.61c1-1-.57-2.63-1.59-1.6Z" style="fill:#f26161"/><path d="M40.73,57a4.7,4.7,0,0,0-5.87-.69A5.72,5.72,0,0,0,32,61.63a6.85,6.85,0,0,0,8.58,6.52C45.3,67,47,61,47.26,56.77A32.94,32.94,0,0,0,46.6,49a27.57,27.57,0,0,0-1.94-7.14c-1.39-2.94-4.91-6.06-8.23-3.82s-3,7.34,0,9.6a12.28,12.28,0,0,0,5.62,2,79.59,79.59,0,0,0,8.56,1c4.67.2,9.89-.91,12-5.62A7.07,7.07,0,0,0,56.5,35c-4.7-.23-7.17,5-5.63,9,.52,1.34,2.7.75,2.17-.6-.85-2.21-.22-5.68,2.52-6.13a4.76,4.76,0,0,1,5.29,6c-.94,3.61-4.5,5-7.88,5.21a33.37,33.37,0,0,1-5.91-.32c-2-.23-4-.44-6-.86-2.66-.59-5.43-2.18-4.61-5.31.66-2.53,3-3,4.78-1.21,2.41,2.41,2.79,6.52,3.34,9.71a20.86,20.86,0,0,1-.55,11c-.69,1.81-1.83,3.76-3.76,4.4A4.92,4.92,0,0,1,35.73,65a4.66,4.66,0,0,1-1.21-5.17,2.89,2.89,0,0,1,4.62-1.25A1.12,1.12,0,0,0,40.73,57Z" style="fill:#f26161"/><path d="M371.1,37.44a4.7,4.7,0,0,0,.7-5.87,5.74,5.74,0,0,0-5.29-2.89A6.83,6.83,0,0,0,360,37.25c1.19,4.76,7.1,6.45,11.38,6.73a32.86,32.86,0,0,0,7.72-.66,27.57,27.57,0,0,0,7.14-1.94c2.95-1.39,6.06-4.91,3.82-8.24s-7.34-3-9.59,0a12.16,12.16,0,0,0-2,5.62,74.56,74.56,0,0,0-1,8.56c-.21,4.67.91,9.89,5.62,12a7.06,7.06,0,0,0,10.13-6.06c.22-4.7-5-7.18-9-5.63-1.34.52-.76,2.69.59,2.17,2.21-.85,5.68-.22,6.13,2.52a4.75,4.75,0,0,1-6,5.29c-3.6-.94-5-4.5-5.21-7.88a34.46,34.46,0,0,1,.32-5.92c.24-2,.44-4,.87-6,.58-2.66,2.17-5.43,5.31-4.61,2.53.66,3,3,1.2,4.78-2.41,2.41-6.52,2.79-9.7,3.34a21,21,0,0,1-11-.55c-1.8-.69-3.75-1.83-4.39-3.77a4.88,4.88,0,0,1,.85-4.52,4.66,4.66,0,0,1,5.17-1.21,2.88,2.88,0,0,1,1.24,4.61c-1,1,.58,2.63,1.59,1.59Z" style="fill:#f26161"/><path d="M382.31,118.43l-1.06,61a1.13,1.13,0,0,0,2.25,0l1.06-61a1.13,1.13,0,0,0-2.25,0Z" style="fill:#f26161"/><path d="M296.05,261.93l-64.23-.42-64-.41-36.23-.24a1.13,1.13,0,0,0,0,2.25l64.23.42,64,.42,36.24.23a1.13,1.13,0,0,0,0-2.25Z" style="fill:#f26161"/><path d="M333.28,42.28c-.08,4.46,5.8,5.61,9.1,4.21a6.47,6.47,0,0,0,2.14-10.63c-4.15-4-11.09-2.41-15.64-.1-2.55,1.29-4.72,3.22-7,4.88s-4.95,4-7.85,3.8-5.57-4.26-3.9-6.88c1.3-2,4.39-2.23,6.33-1.1a1.13,1.13,0,0,0,1.13-2c-3.3-1.92-8.54-1-9.89,3a7.35,7.35,0,0,0,1.48,6.64,6.5,6.5,0,0,0,6.33,2.46c2.74-.46,5.13-2.27,7.33-3.85a61,61,0,0,1,6.77-4.8,16.65,16.65,0,0,1,9.14-2.14c2.23.18,4.71,1.24,5.4,3.57.79,2.67-1.38,5.1-3.95,5.46-1.71.24-4.69-.36-4.65-2.53a1.13,1.13,0,0,0-2.25,0Z" style="fill:#f26161"/><path d="M92.13,45c0,2-2.5,2.62-4.11,2.58a4.72,4.72,0,0,1-4.6-3.77c-.37-2.4,1.49-4.3,3.65-5,2.8-.87,6-.27,8.69.75,5.4,2,9.12,6.91,14.43,9.11a6.87,6.87,0,0,0,7.12-.66,7.88,7.88,0,0,0,2.94-6.34c-.26-5-6.37-6.67-10.16-4.46a1.12,1.12,0,0,0,1.13,1.94,5,5,0,0,1,5.88.56c1.91,1.92.54,5.33-1.39,6.71-2.62,1.86-5.89-.27-8.11-1.79s-4.55-3.51-6.94-5.08c-4.38-2.89-11.45-5-16.27-2a6.48,6.48,0,0,0-.53,10.82c3.23,2.34,10.61,1.76,10.52-3.43a1.13,1.13,0,0,0-2.25,0Z" style="fill:#f26161"/><path d="M296.05,39.33l-64.23.42-64,.41-36.23.24a1.13,1.13,0,0,0,0,2.25l64.23-.42,64-.41,36.24-.24a1.13,1.13,0,0,0,0-2.25Z" style="fill:#f26161"/><path d="M45,87.65c4.47.08,5.62-5.8,4.22-9.1A6.48,6.48,0,0,0,38.6,76.42c-4,4.14-2.4,11.08-.1,15.64,1.29,2.54,3.23,4.71,4.89,7s3.94,5,3.79,7.86-4.25,5.56-6.87,3.89c-2.05-1.3-2.24-4.39-1.11-6.32a1.13,1.13,0,0,0-1.94-1.14c-1.93,3.3-1,8.55,3,9.89a7.35,7.35,0,0,0,6.64-1.48,6.52,6.52,0,0,0,2.46-6.32c-.46-2.75-2.27-5.14-3.86-7.33a64.93,64.93,0,0,1-4.8-6.78,16.72,16.72,0,0,1-2.14-9.14c.19-2.23,1.25-4.7,3.57-5.4,2.68-.79,5.11,1.38,5.46,4,.24,1.7-.36,4.68-2.53,4.64a1.13,1.13,0,0,0,0,2.25Z" style="fill:#f26161"/><path d="M41.05,203.84c-2,0-2.62-2.49-2.57-4.11a4.7,4.7,0,0,1,3.77-4.6c2.4-.36,4.3,1.49,5,3.65.86,2.81.26,6-.75,8.69-2,5.4-6.91,9.12-9.12,14.44A6.87,6.87,0,0,0,38,229,7.87,7.87,0,0,0,44.36,232c5-.25,6.67-6.36,4.46-10.16a1.13,1.13,0,0,0-2,1.14,5,5,0,0,1-.56,5.87c-1.91,1.92-5.32.55-6.7-1.38-1.87-2.62.27-5.9,1.79-8.11,1.62-2.37,3.5-4.56,5.08-6.95,2.89-4.37,5-11.44,2-16.26a6.47,6.47,0,0,0-10.81-.54c-2.35,3.24-1.77,10.61,3.42,10.52a1.13,1.13,0,0,0,0-2.25Z" style="fill:#f26161"/><path d="M41.89,123.47,43,184.52a1.13,1.13,0,0,0,2.25,0l-1.07-61.05a1.13,1.13,0,0,0-2.25,0Z" style="fill:#f26161"/><path d="M396.6,280.68c6.7,0,17,5.92,12.43,11.12S397.57,289.08,396.6,280.68Z" style="fill:#f26161"/><path d="M30.14,274c0,6.71-5.92,17-11.13,12.44S21.73,275,30.14,274Z" style="fill:#f26161"/><path d="M22.88,27.31c-6.71,0-17-5.91-12.44-11.12S21.91,18.91,22.88,27.31Z" style="fill:#f26161"/><path d="M402.23,22.16c0-6.71,5.92-17,11.12-12.43S410.64,21.19,402.23,22.16Z" style="fill:#f26161"/><path d="M399.51,29.85v0c53.13-11.51,3.68-55.43-5.29-5.43h-.14c.29-4.89.72-22-7.73-20.8-8.24,1.18-4.41,14.43-.59,20.73Q208.72,22.94,38,31.66c4.05-5.35,9.39-20.93.41-22.22C28.54,8,30.75,31.53,30.75,31.53c-8.3-51.88-58.76-7.77-6.05,4v.11c-3.79-.24-23.53-1-21.87,8.79s19.44,1.34,21.82.14c-.27,64.46,2.18,155.09,7.37,212.92-1.83-.93-20.21-10-21.92.09-1.84,10.83,22.5,8.75,22.5,8.75-53.75,11.57-2.93,56.25,5.42,4.19h0C38,271,35.9,294,45.66,292.6c8.72-1.24,3.92-16-.07-21.74,121.52,5.08,235.58,6.55,336.44,5.84-4.06,5-9.82,21.23-.66,22.54,9.85,1.41,7.64-22.09,7.64-22.09,8.34,52.1,59.18,7.41,5.42-4.17,0,0,24.34,2.09,22.51-8.75-1.81-10.63-22.09,0-22.09,0l-.16.15c3.15-63.1,6-149.42,5-225.94l.18.17s20.28,10.64,22.08,0C423.69,28.17,401.15,29.72,399.51,29.85Z" style="fill:none;stroke:#000;stroke-miterlimit:10;stroke-width:2px"/>
<rect class="placeholder" fill="url(#pattern)" x="59.87" y="54.5" width="307.53" height="194.03" style="stroke:#000;stroke-miterlimit:10;stroke-width:2px"/></g></g></svg>