<svg xmlns="http://www.w3.org/2000/svg" viewBox="0 0 171.03 171.02"><g id="Calque_2" data-name="Calque 2"><g id="Calque_1-2" data-name="Calque 1"><circle cx="85.51" cy="85.51" r="63.82"/><line x1="85.51" x2="85.51" y2="13.7" style="fill:none;stroke:#f26161;stroke-miterlimit:10"/><line x1="77.12" y1="0.41" x2="78.47" y2="14.04" style="fill:none;stroke:#f26161;stroke-miterlimit:10"/><line x1="68.82" y1="1.65" x2="71.49" y2="15.08" style="fill:none;stroke:#f26161;stroke-miterlimit:10"/><line x1="60.67" y1="3.69" x2="64.65" y2="16.79" style="fill:none;stroke:#f26161;stroke-miterlimit:10"/><line x1="52.76" y1="6.52" x2="58.01" y2="19.17" style="fill:none;stroke:#f26161;stroke-miterlimit:10"/><line x1="45.17" y1="10.11" x2="51.63" y2="22.19" style="fill:none;stroke:#f26161;stroke-miterlimit:10"/><line x1="37.97" y1="14.44" x2="45.58" y2="25.82" style="fill:none;stroke:#f26161;stroke-miterlimit:10"/><line x1="31.22" y1="19.44" x2="39.92" y2="30.03" style="fill:none;stroke:#f26161;stroke-miterlimit:10"/><line x1="25" y1="25.09" x2="34.7" y2="34.77" style="fill:none;stroke:#f26161;stroke-miterlimit:10"/><line x1="19.37" y1="31.32" x2="29.96" y2="40" style="fill:none;stroke:#f26161;stroke-miterlimit:10"/><line x1="14.37" y1="38.07" x2="25.77" y2="45.67" style="fill:none;stroke:#f26161;stroke-miterlimit:10"/><line x1="10.06" y1="45.27" x2="22.14" y2="51.72" style="fill:none;stroke:#f26161;stroke-miterlimit:10"/><line x1="6.48" y1="52.87" x2="19.13" y2="58.1" style="fill:none;stroke:#f26161;stroke-miterlimit:10"/><line x1="3.65" y1="60.78" x2="16.77" y2="64.74" style="fill:none;stroke:#f26161;stroke-miterlimit:10"/><line x1="1.62" y1="68.93" x2="15.06" y2="71.59" style="fill:none;stroke:#f26161;stroke-miterlimit:10"/><line x1="0.4" y1="77.24" x2="14.03" y2="78.57" style="fill:none;stroke:#f26161;stroke-miterlimit:10"/><line y1="85.63" x2="13.7" y2="85.61" style="fill:none;stroke:#f26161;stroke-miterlimit:10"/><line x1="0.42" y1="94.02" x2="14.05" y2="92.66" style="fill:none;stroke:#f26161;stroke-miterlimit:10"/><line x1="1.67" y1="102.33" x2="15.1" y2="99.63" style="fill:none;stroke:#f26161;stroke-miterlimit:10"/><line x1="3.72" y1="110.47" x2="16.82" y2="106.47" style="fill:none;stroke:#f26161;stroke-miterlimit:10"/><line x1="6.57" y1="118.37" x2="19.21" y2="113.11" style="fill:none;stroke:#f26161;stroke-miterlimit:10"/><line x1="10.17" y1="125.96" x2="22.24" y2="119.48" style="fill:none;stroke:#f26161;stroke-miterlimit:10"/><line x1="14.5" y1="133.16" x2="25.88" y2="125.53" style="fill:none;stroke:#f26161;stroke-miterlimit:10"/><line x1="19.52" y1="139.89" x2="30.09" y2="131.18" style="fill:none;stroke:#f26161;stroke-miterlimit:10"/><line x1="25.17" y1="146.1" x2="34.84" y2="136.4" style="fill:none;stroke:#f26161;stroke-miterlimit:10"/><line x1="31.41" y1="151.73" x2="40.07" y2="141.13" style="fill:none;stroke:#f26161;stroke-miterlimit:10"/><line x1="38.17" y1="156.72" x2="45.75" y2="145.32" style="fill:none;stroke:#f26161;stroke-miterlimit:10"/><line x1="45.38" y1="161.02" x2="51.81" y2="148.93" style="fill:none;stroke:#f26161;stroke-miterlimit:10"/><line x1="52.98" y1="164.59" x2="58.19" y2="151.93" style="fill:none;stroke:#f26161;stroke-miterlimit:10"/><line x1="60.9" y1="167.4" x2="64.84" y2="154.29" style="fill:none;stroke:#f26161;stroke-miterlimit:10"/><line x1="69.05" y1="169.42" x2="71.69" y2="155.98" style="fill:none;stroke:#f26161;stroke-miterlimit:10"/><line x1="77.36" y1="170.63" x2="78.67" y2="157" style="fill:none;stroke:#f26161;stroke-miterlimit:10"/><line x1="85.75" y1="171.02" x2="85.71" y2="157.33" style="fill:none;stroke:#f26161;stroke-miterlimit:10"/><line x1="94.14" y1="170.59" x2="92.76" y2="156.96" style="fill:none;stroke:#f26161;stroke-miterlimit:10"/><line x1="102.44" y1="169.33" x2="99.73" y2="155.91" style="fill:none;stroke:#f26161;stroke-miterlimit:10"/><line x1="110.59" y1="167.27" x2="106.57" y2="154.17" style="fill:none;stroke:#f26161;stroke-miterlimit:10"/><line x1="118.48" y1="164.41" x2="113.2" y2="151.77" style="fill:none;stroke:#f26161;stroke-miterlimit:10"/><line x1="126.07" y1="160.8" x2="119.57" y2="148.74" style="fill:none;stroke:#f26161;stroke-miterlimit:10"/><line x1="133.26" y1="156.45" x2="125.61" y2="145.09" style="fill:none;stroke:#f26161;stroke-miterlimit:10"/><line x1="139.99" y1="151.43" x2="131.26" y2="140.87" style="fill:none;stroke:#f26161;stroke-miterlimit:10"/><line x1="146.19" y1="145.77" x2="136.47" y2="136.12" style="fill:none;stroke:#f26161;stroke-miterlimit:10"/><line x1="151.81" y1="139.52" x2="141.19" y2="130.87" style="fill:none;stroke:#f26161;stroke-miterlimit:10"/><line x1="156.79" y1="132.76" x2="145.37" y2="125.19" style="fill:none;stroke:#f26161;stroke-miterlimit:10"/><line x1="161.08" y1="125.54" x2="148.98" y2="119.13" style="fill:none;stroke:#f26161;stroke-miterlimit:10"/><line x1="164.64" y1="117.93" x2="151.97" y2="112.74" style="fill:none;stroke:#f26161;stroke-miterlimit:10"/><line x1="167.44" y1="110.01" x2="154.32" y2="106.09" style="fill:none;stroke:#f26161;stroke-miterlimit:10"/><line x1="169.45" y1="101.86" x2="156" y2="99.24" style="fill:none;stroke:#f26161;stroke-miterlimit:10"/><line x1="170.65" y1="93.54" x2="157.01" y2="92.26" style="fill:none;stroke:#f26161;stroke-miterlimit:10"/><line x1="171.02" y1="85.15" x2="157.33" y2="85.21" style="fill:none;stroke:#f26161;stroke-miterlimit:10"/><line x1="170.58" y1="76.77" x2="156.95" y2="78.17" style="fill:none;stroke:#f26161;stroke-miterlimit:10"/><line x1="169.31" y1="68.46" x2="155.89" y2="71.19" style="fill:none;stroke:#f26161;stroke-miterlimit:10"/><line x1="167.23" y1="60.33" x2="154.14" y2="64.36" style="fill:none;stroke:#f26161;stroke-miterlimit:10"/><line x1="164.37" y1="52.43" x2="151.74" y2="57.73" style="fill:none;stroke:#f26161;stroke-miterlimit:10"/><line x1="160.74" y1="44.85" x2="148.69" y2="51.37" style="fill:none;stroke:#f26161;stroke-miterlimit:10"/><line x1="156.39" y1="37.67" x2="145.04" y2="45.33" style="fill:none;stroke:#f26161;stroke-miterlimit:10"/><line x1="151.35" y1="30.95" x2="140.81" y2="39.69" style="fill:none;stroke:#f26161;stroke-miterlimit:10"/><line x1="145.68" y1="24.75" x2="136.05" y2="34.48" style="fill:none;stroke:#f26161;stroke-miterlimit:10"/><line x1="139.43" y1="19.14" x2="130.8" y2="29.77" style="fill:none;stroke:#f26161;stroke-miterlimit:10"/><line x1="132.66" y1="14.17" x2="125.11" y2="25.6" style="fill:none;stroke:#f26161;stroke-miterlimit:10"/><line x1="125.43" y1="9.89" x2="119.04" y2="22" style="fill:none;stroke:#f26161;stroke-miterlimit:10"/><line x1="117.82" y1="6.34" x2="112.65" y2="19.02" style="fill:none;stroke:#f26161;stroke-miterlimit:10"/><line x1="109.9" y1="3.55" x2="105.99" y2="16.68" style="fill:none;stroke:#f26161;stroke-miterlimit:10"/><line x1="101.74" y1="1.55" x2="99.14" y2="15" style="fill:none;stroke:#f26161;stroke-miterlimit:10"/><line x1="93.43" y1="0.37" x2="92.16" y2="14" style="fill:none;stroke:#f26161;stroke-miterlimit:10"/></g></g></svg>